<svg width="370" height="98" xmlns="http://www.w3.org/2000/svg">
<!-- <style type="text/css">
@keyframes marchingants {
    to { stroke-dashoffset: 20; }
}
#svg_tracks {
    animation: marchingants 80s reverse infinite linear;
}
 {
  animation: rotation 2s infinite linear;
}
#svg_star_up_right {
  animation: rotation 10s infinite linear reverse;
  transform-origin: 55px 47px ;
}
#svg_star_up_left {
  animation: rotation 10s infinite linear reverse;
  transform-origin: 316.9933624267578px 46.22715377807617px ;
}
@keyframes rotation {
  from {
    transform: rotate(0deg);

  }
  to {   
    transform: rotate(359deg);
  }
}


</style> -->
  <g>
    <title>Layer 1</title>stroke="orange" stroke-width="5"
    stroke-dasharray="5" /&gt;
    <g id="svg_tractor">
      <path fill="#ffffff" stroke-dasharray="30 5" stroke-width="15" stroke="orange" opacity="undefined"
        stroke-dashoffset="2000"
        d="m185.75732,86.12122c-95.43987,0 -175.05277,8.18604 -174.25486,-39.18233c0.7979,-47.36837 78.815,-37.73114 174.25486,-37.73114c95.43987,0 172.78971,-11.81403 172.74616,38.45674c-0.04356,50.27077 -77.30629,38.45674 -172.74616,38.45674z"
        id="svg_tracks"
        <animate>
          attributeName="stroke-dashoffset"
          from="20"
          to="2000"
          by="1s"
          dur="2s" repeatCount="indefinite"
        <animate/>     
        />
        <path fill="#C48157" stroke="black" stroke-width="3"
          d="m70.55604,29.30624l1.62555,-8.65964c-1.313,-0.7114 -2.67958,-1.2804 -4.07296,-1.7746l-6.40796,6.45232c-1.90982,-0.37419 -3.86664,-0.47937 -5.82342,-0.36665l-4.38636,-7.15935c-1.52645,0.31097 -3.03313,0.74443 -4.51721,1.27064l-0.95425,8.56684c-1.80792,0.91869 -3.52624,2.06648 -5.10656,3.4252l-8.22911,-2.33014c-0.51989,0.58755 -1.0422,1.17315 -1.52618,1.80414s-0.91029,1.27999 -1.33986,1.93253l4.84096,6.63185c-0.92004,1.8787 -1.56092,3.81946 -1.94362,5.7746l-8.18023,3.45017c-0.06875,1.49831 -0.03832,2.98956 0.12121,4.46075l8.30783,1.69092c0.48908,1.90599 1.23839,3.73561 2.26144,5.42656l-4.35727,7.52072c0.92612,1.10016 1.91748,2.15587 3.04121,3.11949l7.91103,-3.99699c1.72309,1.07889 3.55986,1.90702 5.47098,2.45028l1.42404,8.10218c1.50684,0.20854 3.02786,0.33293 4.55611,0.31764l3.83485,-7.84654c2.05061,-0.30795 4.07442,-0.8739 6.01976,-1.69617l6.61149,4.94758c1.3576,-0.78778 2.66852,-1.67488 3.92405,-2.65474l-2.08319,-8.06741c0.68627,-0.70472 1.34888,-1.44061 1.95917,-2.23629c0.66114,-0.86197 1.23217,-1.75692 1.75778,-2.66238l8.79098,-0.61819c0.59765,-1.43551 1.08188,-2.88883 1.45319,-4.35522l-7.1367,-4.50647c0.18745,-1.9308 0.11227,-3.85031 -0.20461,-5.71505l6.86638,-6.03289c-0.45674,-1.3814 -1.05047,-2.71254 -1.72655,-4.00602l-8.85431,1.25915c-1.08854,-1.45547 -2.41389,-2.76215 -3.92765,-3.91881l0,0.00001l-0.00001,0l0,-0.00001zm-0.27211,16.06511l-0.41132,4.35302l-4.21287,-0.04785c-0.38245,1.22019 -0.96392,2.41706 -1.80908,3.51895c-3.69118,4.81246 -10.46696,6.10802 -15.13418,2.89597c-4.66741,-3.21218 -5.45901,-9.71572 -1.76783,-14.52818c3.69022,-4.81121 10.46562,-6.1092 15.13303,-2.89701c2.33235,1.60516 3.69364,4.03028 4.01573,6.65763l4.18652,0.04748l-0.00001,0l0,0.00001z"
          id="svg_star_up_right"           
          />
        <path fill="#C48157" stroke="black" stroke-width="3"
          d="m341.19726,47.76191l8.35143,-3.84429c-0.16418,-1.42435 -0.48146,-2.80606 -0.87839,-4.16435l-9.27725,-1.11809c-0.80298,-1.68351 -1.86334,-3.24493 -3.10977,-4.67823l3.53636,-7.5696c-1.16282,-0.987 -2.41862,-1.88685 -3.74037,-2.71485l-7.87759,4.30418c-1.8473,-0.84549 -3.83759,-1.48765 -5.92693,-1.90007l-2.84684,-7.67591c-0.8074,-0.05306 -1.61455,-0.10912 -2.43794,-0.10912s-1.62826,0.05477 -2.43807,0.10912l-2.81863,7.60792c-2.14534,0.39921 -4.17958,1.04883 -6.07436,1.90475l-7.75491,-4.24087c-1.32008,0.828 -2.57582,1.72785 -3.73856,2.71485l3.43905,7.36051c-1.34038,1.49512 -2.46257,3.14476 -3.30543,4.92269l-8.98437,1.08143c-0.39525,1.35638 -0.7142,2.73662 -0.87669,4.16418l8.0637,3.71316c0.09135,1.95463 0.4637,3.84897 1.12304,5.63286l-6.08282,5.85364c0.70759,1.27732 1.49539,2.51606 2.40673,3.67823l8.95558,-1.67328c1.46833,1.39046 3.14125,2.60872 4.98698,3.6162l-0.33945,7.97476c1.4708,0.57734 2.99899,1.06052 4.57384,1.44674l5.66568,-6.33834c1.00526,0.11169 2.02323,0.18693 3.06153,0.18693c1.12479,0 2.22479,-0.08844 3.30706,-0.21785l5.69519,6.37351c1.57732,-0.38577 3.10318,-0.86893 4.57383,-1.4463l-0.346,-8.11797c1.75922,-0.99124 3.35443,-2.17712 4.76079,-3.51602l9.18848,1.71593c0.91135,-1.16199 1.69925,-2.3994 2.40659,-3.6778l-6.27983,-6.04529c0.60325,-1.68969 0.94023,-3.47341 1.03833,-5.31333l-0.00001,0l0,-0.00001l0.00001,0zm-13.8807,9.23431l-3.95956,2.24343l-2.43539,-3.25661c-1.26693,0.42413 -2.63092,0.68202 -4.06879,0.68202c-6.27981,0 -11.36901,-4.43104 -11.36901,-9.8957c0,-5.46489 5.0892,-9.89421 11.36901,-9.89421c6.27817,0 11.36923,4.42932 11.36923,9.89421c0,2.73086 -1.27108,5.19952 -3.32571,6.99067l2.42023,3.2362l0,-0.00001l-0.00001,0z"
          id="svg_star_up_left" />
        <rect id="svg_2" height="21.04236" width="176.18186" y="35.32931" x="98.8271" stroke="#000000" fill="#444444"
          rx="10" />
        <rect fill="#444444" stroke="#000000" x="160.10775" y="28.07332" width="58.21661" height="37.73114" id="svg_3"
          rx="20" />
    </g>
  </g>

</svg>