<svg width="800" height="600" xmlns="http://www.w3.org/2000/svg">
 <g>
  <title>Layer 1</title>stroke="orange" stroke-width="5"
    stroke-dasharray="5" /&gt;
  <path id="svg_1" d="m354.48472,274c-124.59382,0 -228.52601,11.28177 -227.48436,-54c1.04164,-65.28177 102.89056,-52 227.48436,-52c124.59382,0 225.57166,-16.28177 225.5148,53c-0.05686,69.28177 -100.92099,53 -225.5148,53z" opacity="undefined" stroke="orange" stroke-width="15" stroke-dasharray="30 5" fill="#ffffff"/>
  <path transform="rotate(-54, 183.809, 220.019)" id="svg_star_up_right" d="m215.40678,222.13427l10.90254,-5.29809c-0.21433,-1.963 -0.62853,-3.86724 -1.14671,-5.73919l-12.11116,-1.54092c-1.04826,-2.32017 -2.43253,-4.47207 -4.05971,-6.4474l4.61661,-10.43221c-1.51802,-1.36025 -3.15744,-2.6004 -4.88294,-3.74153l-10.28395,5.9319c-2.41159,-1.16523 -5.00986,-2.05024 -7.73742,-2.61863l-3.71646,-10.57872c-1.05403,-0.07313 -2.10774,-0.15039 -3.18265,-0.15039s-2.12564,0.07548 -3.18283,0.15039l-3.67964,10.48502c-2.80067,0.55018 -5.45631,1.44547 -7.92989,2.62508l-10.1238,-5.84465c-1.72332,1.14113 -3.36266,2.38128 -4.88057,3.74153l4.48957,10.14405c-1.74982,2.06053 -3.21481,4.33402 -4.31514,6.78431l-11.72882,1.49039c-0.51599,1.86932 -0.93237,3.77154 -1.14449,5.73896l10.52691,5.11737c0.11926,2.69381 0.60535,5.30455 1.4661,7.76305l-7.94093,8.06732c0.92374,1.76037 1.95218,3.46756 3.14191,5.06923l11.69123,-2.30607c1.91686,1.91629 4.10081,3.59527 6.51035,4.98374l-0.44314,10.99059c1.92009,0.79567 3.91509,1.46158 5.97101,1.99385l7.39637,-8.73532c1.31234,0.15393 2.64127,0.25762 3.99673,0.25762c1.46838,0 2.90439,-0.12188 4.31726,-0.30024l7.43489,8.78379c2.05914,-0.53166 4.05111,-1.19753 5.971,-1.99325l-0.45169,-11.18796c2.29661,-1.3661 4.37911,-3.00045 6.21507,-4.84568l11.99528,2.36485c1.18974,-1.60142 2.21832,-3.30679 3.14173,-5.06864l-8.19813,-8.33145c0.78753,-2.32869 1.22744,-4.78695 1.35551,-7.32269l-0.00001,0l0,-0.00001l0.00001,0zm-18.12083,12.72647l-5.16908,3.09183l-3.17933,-4.48817c-1.65394,0.58452 -3.43459,0.93994 -5.31168,0.93994c-8.1981,0 -14.84189,-6.10673 -14.84189,-13.63798c0,-7.53156 6.6438,-13.63592 14.84189,-13.63592c8.19596,0 14.84218,6.10436 14.84218,13.63592c0,3.76359 -1.65936,7.16584 -4.34161,9.63435l3.15953,4.46004l0,-0.00001l-0.00001,0z" stroke-width="3" stroke="black" fill="#C48157"/>
  <path id="svg_star_up_left" d="m557.40678,221.13427l10.90254,-5.29809c-0.21433,-1.963 -0.62853,-3.86724 -1.14671,-5.73919l-12.11116,-1.54092c-1.04826,-2.32017 -2.43253,-4.47207 -4.05971,-6.4474l4.61661,-10.43221c-1.51802,-1.36025 -3.15744,-2.6004 -4.88294,-3.74153l-10.28395,5.9319c-2.41159,-1.16523 -5.00986,-2.05024 -7.73742,-2.61863l-3.71646,-10.57872c-1.05403,-0.07313 -2.10774,-0.15039 -3.18265,-0.15039s-2.12564,0.07548 -3.18283,0.15039l-3.67964,10.48502c-2.80067,0.55018 -5.45631,1.44547 -7.92989,2.62508l-10.1238,-5.84465c-1.72332,1.14113 -3.36266,2.38128 -4.88057,3.74153l4.48957,10.14405c-1.74982,2.06053 -3.21481,4.33402 -4.31514,6.78431l-11.72882,1.49039c-0.51599,1.86932 -0.93237,3.77154 -1.14449,5.73896l10.52691,5.11737c0.11926,2.69381 0.60535,5.30455 1.4661,7.76305l-7.94093,8.06732c0.92374,1.76037 1.95218,3.46756 3.14191,5.06923l11.69123,-2.30607c1.91686,1.91629 4.10081,3.59527 6.51035,4.98374l-0.44314,10.99059c1.92009,0.79567 3.91509,1.46158 5.97101,1.99385l7.39637,-8.73532c1.31234,0.15393 2.64127,0.25762 3.99673,0.25762c1.46838,0 2.90439,-0.12188 4.31726,-0.30024l7.43489,8.78379c2.05914,-0.53166 4.05111,-1.19753 5.971,-1.99325l-0.45169,-11.18796c2.29661,-1.3661 4.37911,-3.00045 6.21507,-4.84568l11.99528,2.36485c1.18974,-1.60142 2.21832,-3.30679 3.14173,-5.06864l-8.19813,-8.33145c0.78753,-2.32869 1.22744,-4.78695 1.35551,-7.32269l-0.00001,0l0,-0.00001l0.00001,0zm-18.12083,12.72647l-5.16908,3.09183l-3.17933,-4.48817c-1.65394,0.58452 -3.43459,0.93994 -5.31168,0.93994c-8.1981,0 -14.84189,-6.10673 -14.84189,-13.63798c0,-7.53156 6.6438,-13.63592 14.84189,-13.63592c8.19596,0 14.84218,6.10436 14.84218,13.63592c0,3.76359 -1.65936,7.16584 -4.34161,9.63435l3.15953,4.46004l0,-0.00001l-0.00001,0z" stroke-width="3" stroke="black" fill="#C48157"/>
  <rect rx="10" fill="#444444" stroke="#000000" x="241" y="204" width="230" height="29" id="svg_2"/>
  <rect rx="20" id="svg_3" height="52" width="76" y="194" x="321" stroke="#000000" fill="#444444"/></g>

</svg>